name C:/MyDriveSym/Projects/mobilecap/Data\Session20210813_0002\mocap\ForceDataProcessed\walking3_forces.mot
datacolumns 19
datarows 22
range 0.76450000 0.77500000
endheader 
time	R_ground_force_vx	R_ground_force_vy	R_ground_force_vz	R_ground_force_px	R_ground_force_py	R_ground_force_pz	R_ground_torque_x	R_ground_torque_y	R_ground_torque_z	L_ground_force_vx	L_ground_force_vy	L_ground_force_vz	L_ground_force_px	L_ground_force_py	L_ground_force_pz	L_ground_torque_x	L_ground_torque_y	L_ground_torque_z	
          0.76450000	          9.79036900	         53.47432800	          2.93095800	          0.52059000	          0.00600000	         -0.15193800	          0.00000000	         -0.11815600	          0.00000000	        -82.30164500	        749.97642200	         22.84796000	          0.94959800	          0.00600000	         -0.26373400	          0.00000000	         -0.49713300	          0.00000000	
          0.76500000	          9.55040600	         52.36736900	          2.89318000	          0.52167200	          0.00600000	         -0.15182100	          0.00000000	         -0.11603000	          0.00000000	        -82.18542600	        750.70620600	         22.89043700	          0.94969500	          0.00600000	         -0.26373400	          0.00000000	         -0.50330000	          0.00000000	
          0.76550000	          9.31293900	         51.27171500	          2.85559200	          0.52278100	          0.00600000	         -0.15170100	          0.00000000	         -0.11397500	          0.00000000	        -82.06777200	        751.42681600	         22.93223600	          0.94979100	          0.00600000	         -0.26373300	          0.00000000	         -0.50939200	          0.00000000	
          0.76600000	          9.07796400	         50.18732600	          2.81820100	          0.52392000	          0.00600000	         -0.15157700	          0.00000000	         -0.11198900	          0.00000000	        -81.94870100	        752.13824800	         22.97336700	          0.94988700	          0.00600000	         -0.26373300	          0.00000000	         -0.51540800	          0.00000000	
          0.76650000	          8.84547600	         49.11416200	          2.78100900	          0.52509000	          0.00600000	         -0.15144900	          0.00000000	         -0.11007500	          0.00000000	        -81.82822800	        752.84049900	         23.01383500	          0.94998400	          0.00600000	         -0.26373200	          0.00000000	         -0.52134900	          0.00000000	
          0.76700000	          8.61547300	         48.05218200	          2.74402000	          0.52629200	          0.00600000	         -0.15131600	          0.00000000	         -0.10823400	          0.00000000	        -81.70637000	        753.53356300	         23.05364900	          0.95008000	          0.00600000	         -0.26373100	          0.00000000	         -0.52721300	          0.00000000	
          0.76750000	          8.38794900	         47.00134200	          2.70723800	          0.52752800	          0.00600000	         -0.15118000	          0.00000000	         -0.10646600	          0.00000000	        -81.58314200	        754.21744000	         23.09281700	          0.95017700	          0.00600000	         -0.26373100	          0.00000000	         -0.53300100	          0.00000000	
          0.76800000	          8.16290100	         45.96160200	          2.67066600	          0.52880000	          0.00600000	         -0.15103800	          0.00000000	         -0.10477300	          0.00000000	        -81.45856200	        754.89212600	         23.13134500	          0.95027400	          0.00600000	         -0.26373000	          0.00000000	         -0.53871200	          0.00000000	
          0.76850000	          7.94032300	         44.93291700	          2.63430800	          0.53010800	          0.00600000	         -0.15089200	          0.00000000	         -0.10315700	          0.00000000	        -81.33264500	        755.55762000	         23.16924200	          0.95037100	          0.00600000	         -0.26372900	          0.00000000	         -0.54434600	          0.00000000	
          0.76900000	          7.72021000	         43.91524300	          2.59816700	          0.53145500	          0.00600000	         -0.15074100	          0.00000000	         -0.10161900	          0.00000000	        -81.20540800	        756.21392100	         23.20651300	          0.95046700	          0.00600000	         -0.26372800	          0.00000000	         -0.54990400	          0.00000000	
          0.76950000	          7.50255600	         42.90853500	          2.56224500	          0.53284300	          0.00600000	         -0.15058400	          0.00000000	         -0.10016100	          0.00000000	        -81.07686600	        756.86102700	         23.24316600	          0.95056400	          0.00600000	         -0.26372700	          0.00000000	         -0.55538500	          0.00000000	
          0.77000000	          7.28735700	         41.91275000	          2.52654700	          0.53427400	          0.00600000	         -0.15042200	          0.00000000	         -0.09878500	          0.00000000	        -80.94703600	        757.49894000	         23.27920900	          0.95066100	          0.00600000	         -0.26372600	          0.00000000	         -0.56078800	          0.00000000	
          0.77050000	          7.07460600	         40.92784000	          2.49107500	          0.53575000	          0.00600000	         -0.15025300	          0.00000000	         -0.09749200	          0.00000000	        -80.81593300	        758.12765900	         23.31464700	          0.95075900	          0.00600000	         -0.26372500	          0.00000000	         -0.56611400	          0.00000000	
          0.77100000	          6.86429700	         39.95376000	          2.45583100	          0.53727300	          0.00600000	         -0.15007900	          0.00000000	         -0.09628400	          0.00000000	        -80.68357300	        758.74718500	         23.34948900	          0.95085600	          0.00600000	         -0.26372400	          0.00000000	         -0.57136200	          0.00000000	
          0.77150000	          6.65642400	         38.99046200	          2.42082000	          0.53884600	          0.00600000	         -0.14989800	          0.00000000	         -0.09516500	          0.00000000	        -80.54997300	        759.35752000	         23.38373900	          0.95095300	          0.00600000	         -0.26372300	          0.00000000	         -0.57653200	          0.00000000	
          0.77200000	          6.45097900	         38.03789900	          2.38604200	          0.54047200	          0.00600000	         -0.14971100	          0.00000000	         -0.09413600	          0.00000000	        -80.41514800	        759.95866500	         23.41740500	          0.95105100	          0.00600000	         -0.26372200	          0.00000000	         -0.58162400	          0.00000000	
          0.77250000	          6.24795700	         37.09602300	          2.35150100	          0.54215200	          0.00600000	         -0.14951600	          0.00000000	         -0.09320100	          0.00000000	        -80.27911300	        760.55062300	         23.45049300	          0.95114800	          0.00600000	         -0.26372100	          0.00000000	         -0.58663800	          0.00000000	
          0.77300000	          6.04735000	         36.16478500	          2.31719900	          0.54389100	          0.00600000	         -0.14931300	          0.00000000	         -0.09236100	          0.00000000	        -80.14188500	        761.13339700	         23.48300900	          0.95124600	          0.00600000	         -0.26372000	          0.00000000	         -0.59157400	          0.00000000	
          0.77350000	          5.84915100	         35.24413700	          2.28313900	          0.54569200	          0.00600000	         -0.14910200	          0.00000000	         -0.09162100	          0.00000000	        -80.00348000	        761.70699100	         23.51495900	          0.95134400	          0.00600000	         -0.26371900	          0.00000000	         -0.59643100	          0.00000000	
          0.77400000	          5.65335100	         34.33402800	          2.24932300	          0.54755800	          0.00600000	         -0.14888300	          0.00000000	         -0.09098300	          0.00000000	        -79.86391200	        762.27140700	         23.54635000	          0.95144200	          0.00600000	         -0.26371800	          0.00000000	         -0.60120900	          0.00000000	
          0.77450000	          5.45994400	         33.43440900	          2.21575200	          0.54949400	          0.00600000	         -0.14865500	          0.00000000	         -0.09045100	          0.00000000	        -79.72319700	        762.82665000	         23.57718600	          0.95154000	          0.00600000	         -0.26371700	          0.00000000	         -0.60590900	          0.00000000	
          0.77500000	          5.26892000	         32.54522900	          2.18242900	          0.55150200	          0.00600000	         -0.14841700	          0.00000000	         -0.09003000	          0.00000000	        -79.58135100	        763.37272600	         23.60747400	          0.95163800	          0.00600000	         -0.26371600	          0.00000000	         -0.61052900	          0.00000000	
